<?xml version="1.0" encoding="utf-8"?>
<!-- Generator: Adobe Illustrator 27.5.0, SVG Export Plug-In . SVG Version: 6.00 Build 0)  -->
<svg version="1.1" xmlns="http://www.w3.org/2000/svg" xmlns:xlink="http://www.w3.org/1999/xlink" x="0px" y="0px"
	 viewBox="0 0 500 500" style="enable-background:new 0 0 500 500;" xml:space="preserve">
<g id="Background_Complete">
	<g>
		<rect y="382.398" style="fill:#EBEBEB;" width="500" height="0.25"/>
		<rect x="394.358" y="393.852" style="fill:#EBEBEB;" width="50.901" height="0.25"/>
		<rect x="52.459" y="390.888" style="fill:#EBEBEB;" width="47.208" height="0.25"/>
		<rect x="378.807" y="389.208" style="fill:#EBEBEB;" width="19.192" height="0.25"/>
		<rect x="317.138" y="395.838" style="fill:#EBEBEB;" width="14.082" height="0.25"/>
		<rect x="272.79" y="395.838" style="fill:#EBEBEB;" width="35.444" height="0.25"/>
		<rect x="195.222" y="391.616" style="fill:#EBEBEB;" width="56.986" height="0.25"/>
		<path style="fill:#EBEBEB;" d="M237.014,337.8H43.915c-3.147,0-5.708-2.561-5.708-5.708V60.66c0-3.147,2.561-5.708,5.708-5.708
			h193.099c3.146,0,5.707,2.561,5.707,5.708v271.432C242.721,335.239,240.16,337.8,237.014,337.8z M43.915,55.203
			c-3.01,0-5.458,2.448-5.458,5.458v271.432c0,3.01,2.448,5.458,5.458,5.458h193.099c3.009,0,5.457-2.448,5.457-5.458V60.66
			c0-3.009-2.448-5.458-5.457-5.458H43.915z"/>
		<path style="fill:#EBEBEB;" d="M453.31,337.8H260.212c-3.147,0-5.707-2.561-5.707-5.708V60.66c0-3.147,2.561-5.708,5.707-5.708
			H453.31c3.148,0,5.708,2.561,5.708,5.708v271.432C459.019,335.239,456.458,337.8,453.31,337.8z M260.212,55.203
			c-3.009,0-5.457,2.448-5.457,5.458v271.432c0,3.01,2.448,5.458,5.457,5.458H453.31c3.01,0,5.458-2.448,5.458-5.458V60.66
			c0-3.009-2.448-5.458-5.458-5.458H260.212z"/>
	</g>
	<g>
		<g>
			<g>
				<g>
					
						<rect x="77.008" y="81.575" transform="matrix(-1 -1.224647e-16 1.224647e-16 -1 294.6476 287.9598)" style="fill:#E6E6E6;" width="140.631" height="124.809"/>
					
						<rect x="73.883" y="81.575" transform="matrix(-1 -1.224647e-16 1.224647e-16 -1 288.3972 287.9598)" style="fill:#F5F5F5;" width="140.631" height="124.809"/>
					
						<rect x="88.095" y="79.274" transform="matrix(-1.836970e-16 1 -1 -1.836970e-16 288.1786 -0.2188)" style="fill:#FFFFFF;" width="112.207" height="129.412"/>
					
						<rect x="24.57" y="142.799" transform="matrix(-1.836970e-16 1 -1 -1.836970e-16 224.6539 63.3059)" style="fill:#E6E6E6;" width="112.207" height="2.363"/>
					
						<rect x="76.203" y="180.892" transform="matrix(-1 -1.224647e-16 1.224647e-16 -1 288.3972 370.2429)" style="fill:#F5F5F5;" width="135.991" height="8.459"/>
				</g>
				<g>
					<path style="fill:#E6E6E6;" d="M67.767,71.145h155.987c0.475,0,0.864,0.389,0.864,0.864l0,0c0,0.475-0.389,0.864-0.864,0.864
						H67.767c-0.475,0-0.864-0.389-0.864-0.864l0,0C66.904,71.534,67.292,71.145,67.767,71.145z"/>
					<path style="fill:#E6E6E6;" d="M64.744,72.009c0,1.192,0.967,2.159,2.159,2.159c1.192,0,2.159-0.967,2.159-2.159
						c0-1.192-0.967-2.159-2.159-2.159C65.711,69.85,64.744,70.817,64.744,72.009z"/>
					<path style="fill:#E6E6E6;" d="M216.473,76.845L216.473,76.845c0.641,0,1.166-0.525,1.166-1.166v-2.504
						c0-0.641-0.525-1.166-1.166-1.166l0,0c-0.641,0-1.166,0.525-1.166,1.166v2.504C215.307,76.321,215.832,76.845,216.473,76.845z"
						/>
					<path style="fill:#E6E6E6;" d="M80.792,76.845L80.792,76.845c0.641,0,1.166-0.525,1.166-1.166v-2.504
						c0-0.641-0.525-1.166-1.166-1.166l0,0c-0.641,0-1.166,0.525-1.166,1.166v2.504C79.626,76.321,80.15,76.845,80.792,76.845z"/>
				</g>
			</g>
			
				<rect x="68.043" y="72.009" transform="matrix(-1 -1.224647e-16 1.224647e-16 -1 280.237 266.1759)" style="opacity:0.4;fill:#E0E0E0;" width="144.151" height="122.158"/>
			<path style="fill:#E6E6E6;" d="M200.426,72.009c0,1.192,0.967,2.159,2.159,2.159c1.192,0,2.159-0.967,2.159-2.159
				c0-1.192-0.967-2.159-2.159-2.159C201.393,69.85,200.426,70.817,200.426,72.009z"/>
		</g>
		<g>
			<g>
				<g>
					
						<rect x="180.313" y="244.63" transform="matrix(-1 -1.224647e-16 1.224647e-16 -1 392.5677 620.8205)" style="fill:#F0F0F0;" width="31.941" height="131.559"/>
					
						<rect x="83.466" y="376.19" transform="matrix(-1 -1.224647e-16 1.224647e-16 -1 289.5873 758.588)" style="fill:#F0F0F0;" width="122.656" height="6.208"/>
					<rect x="77.333" y="244.63" style="fill:#F5F5F5;" width="102.98" height="131.559"/>
					<rect x="89.891" y="294.344" style="fill:#F0F0F0;" width="77.865" height="32.132"/>
					<rect x="89.891" y="332.337" style="fill:#F0F0F0;" width="77.865" height="32.132"/>
					<rect x="89.891" y="256.351" style="fill:#F0F0F0;" width="77.865" height="32.132"/>
				</g>
				
					<rect x="73.077" y="233.828" transform="matrix(-1 -1.224647e-16 1.224647e-16 -1 253.3903 478.4584)" style="fill:#F0F0F0;" width="107.237" height="10.803"/>
				<rect x="180.313" y="233.828" style="fill:#E6E6E6;" width="36.405" height="10.803"/>
			</g>
			<g>
				<g>
					<rect x="119.035" y="216.513" style="fill:#F0F0F0;" width="17.015" height="17.315"/>
					
						<rect x="88.848" y="216.513" transform="matrix(-1 -1.224647e-16 1.224647e-16 -1 207.8836 450.3411)" style="fill:#F5F5F5;" width="30.187" height="17.315"/>
					<rect x="88.67" y="219.124" style="opacity:0.7;fill:#E6E6E6;" width="47.38" height="1.399"/>
				</g>
				<g>
					<rect x="119.035" y="215.667" style="fill:#F0F0F0;" width="17.954" height="4.046"/>
					
						<rect x="87.909" y="215.667" transform="matrix(-1 -1.224647e-16 1.224647e-16 -1 206.9445 435.3793)" style="fill:#F5F5F5;" width="31.126" height="4.046"/>
				</g>
			</g>
			<g>
				<g>
					<rect x="179.48" y="216.513" style="fill:#F0F0F0;" width="17.015" height="17.315"/>
					
						<rect x="149.293" y="216.513" transform="matrix(-1 -1.224647e-16 1.224647e-16 -1 328.7724 450.3411)" style="fill:#F5F5F5;" width="30.187" height="17.315"/>
					<rect x="149.115" y="219.124" style="opacity:0.7;fill:#E6E6E6;" width="47.38" height="1.399"/>
				</g>
				<g>
					<rect x="179.48" y="215.667" style="fill:#F0F0F0;" width="17.954" height="4.046"/>
					
						<rect x="148.354" y="215.667" transform="matrix(-1 -1.224647e-16 1.224647e-16 -1 327.8334 435.3793)" style="fill:#F5F5F5;" width="31.126" height="4.046"/>
				</g>
			</g>
		</g>
		<g>
			<g>
				
					<rect x="374.243" y="120.416" transform="matrix(-1 -1.224647e-16 1.224647e-16 -1 814.3885 321.4165)" style="fill:#F0F0F0;" width="65.902" height="80.584"/>
				
					<rect x="360.091" y="120.416" transform="matrix(-1 -1.224647e-16 1.224647e-16 -1 795.9854 321.4165)" style="fill:#F5F5F5;" width="75.803" height="80.584"/>
				
					<rect x="364.051" y="129.157" transform="matrix(6.123234e-17 -1 1 6.123234e-17 237.2845 558.701)" style="fill:#FFFFFF;" width="67.883" height="63.102"/>
				<path style="fill:#F5F5F5;" d="M414.249,147.354v26.709c0,2.283-1.85,4.133-4.133,4.133H385.87c-2.283,0-4.133-1.85-4.133-4.133
					v-26.709c0-2.283,1.85-4.133,4.133-4.133h24.246C412.398,143.221,414.249,145.071,414.249,147.354z"/>
			</g>
			<g>
				
					<rect x="288.916" y="82.956" transform="matrix(-1 -1.224647e-16 1.224647e-16 -1 643.7332 246.4956)" style="fill:#F0F0F0;" width="65.902" height="80.583"/>
				
					<rect x="274.764" y="82.956" transform="matrix(-1 -1.224647e-16 1.224647e-16 -1 625.33 246.4956)" style="fill:#F5F5F5;" width="75.803" height="80.583"/>
				
					<rect x="278.724" y="91.697" transform="matrix(6.123234e-17 -1 1 6.123234e-17 189.4173 435.9128)" style="fill:#FFFFFF;" width="67.883" height="63.102"/>
				<path style="fill:#F5F5F5;" d="M328.921,114.7v17.096c0,4.937-4.002,8.939-8.939,8.939h-14.633c-4.937,0-8.94-4.002-8.94-8.939
					V114.7c0-4.937,4.002-8.939,8.94-8.939h14.633C324.919,105.76,328.921,109.762,328.921,114.7z"/>
			</g>
		</g>
		<g>
			<g>
				
					<rect x="196.284" y="261.148" transform="matrix(-1 -1.224647e-16 1.224647e-16 -1 439.9912 643.5468)" style="fill:#E6E6E6;" width="47.424" height="121.25"/>
				<polygon style="fill:#F0F0F0;" points="201.054,382.398 196.284,382.398 196.284,365.886 206.055,365.886 				"/>
				
					<rect x="270.601" y="261.148" transform="matrix(-1 -1.224647e-16 1.224647e-16 -1 588.6251 643.5468)" style="fill:#E6E6E6;" width="47.424" height="121.25"/>
				
					<rect x="196.284" y="261.148" transform="matrix(-1 -1.224647e-16 1.224647e-16 -1 471.0474 633.4143)" style="fill:#F0F0F0;" width="78.48" height="111.118"/>
				
					<rect x="199.984" y="266.073" transform="matrix(-1 -1.224647e-16 1.224647e-16 -1 471.0474 562.6192)" style="fill:#E6E6E6;" width="71.079" height="30.473"/>
				<path style="fill:#F0F0F0;" d="M228.564,275.543h10.715c4.654,0,9.104-3.759,12.304-10.396h0H216.26l0,0
					C219.461,271.784,223.91,275.543,228.564,275.543z"/>
				<polygon style="fill:#F0F0F0;" points="269.993,382.398 274.764,382.398 274.764,365.886 264.992,365.886 				"/>
				
					<rect x="199.984" y="301.471" transform="matrix(-1 -1.224647e-16 1.224647e-16 -1 471.0474 633.4143)" style="fill:#E6E6E6;" width="71.079" height="30.472"/>
				<path style="fill:#F0F0F0;" d="M228.564,310.94h10.715c4.654,0,9.104-3.759,12.304-10.396l0,0H216.26v0
					C219.461,307.181,223.91,310.94,228.564,310.94z"/>
				
					<rect x="199.984" y="336.868" transform="matrix(-1 -1.224647e-16 1.224647e-16 -1 471.0474 704.2094)" style="fill:#E6E6E6;" width="71.079" height="30.473"/>
				<path style="fill:#F0F0F0;" d="M228.564,346.338h10.715c4.654,0,9.104-3.759,12.304-10.396h0H216.26l0,0
					C219.461,342.579,223.91,346.338,228.564,346.338z"/>
			</g>
		</g>
		<g>
			<g>
				<path style="fill:#F0F0F0;" d="M383.453,246.822l-8.532,29.951c0.261,64.734-2.664,68.464-2.69,79.6h9.026
					C382.08,302.19,387.398,306.801,383.453,246.822z"/>
				<g>
					<path style="fill:#FAFAFA;" d="M381.804,382.398L381.804,382.398c16.98,0,31.306-11.923,34.791-28.038
						c0.922-4.263,1.971-8.497,3.626-12.532l0.267-0.65H343.12l0.267,0.65c1.655,4.035,2.705,8.269,3.626,12.532
						C350.498,370.476,364.824,382.398,381.804,382.398z"/>
					<polygon style="fill:#F0F0F0;" points="338.11,345.097 425.497,345.097 428,326.173 335.608,326.173 					"/>
				</g>
			</g>
			<path style="fill:#F0F0F0;" d="M378.585,332.542c-3.233-62.387,37.935-65.961,54.241-44.905
				C441.485,310.294,380.444,368.422,378.585,332.542z"/>
			<path style="fill:#F0F0F0;" d="M378.64,306.732c-6.594-46.057,23.441-54.749,36.855-41.431
				C423.395,280.932,382.432,333.221,378.64,306.732z"/>
			<path style="fill:#F0F0F0;" d="M380.56,273.166c-6.834-29.059,11.866-36.323,21.197-28.575
				C407.695,254.131,384.491,289.879,380.56,273.166z"/>
			<path style="fill:#F0F0F0;" d="M374.36,293.875c11.836-35.335-10.574-46.514-23.062-37.956
				C342.821,267.095,367.553,314.198,374.36,293.875z"/>
			<path style="fill:#F0F0F0;" d="M381.466,275.872c17.209-33.053-3.179-47.594-16.851-41.092
				C354.495,244.495,371.568,294.882,381.466,275.872z"/>
			<path style="fill:#F0F0F0;" d="M377.111,328.589c8.478-54.467-27.334-61.326-43.55-44.318
				C323.912,303.375,372.235,359.915,377.111,328.589z"/>
		</g>
	</g>
</g>
<g id="Background_Simple" style="display:none;">
	<g style="display:inline;">
		<path style="fill:#407BFF;" d="M99.727,285.509c21.607,30.224,133.742,63.836,194.992,51.75
			c79.438-15.675,130.179-86.295,103.777-164.496c-24.529-72.653-105.55-94.927-175.537-62.448
			C160.637,139.237,71.876,250.363,99.727,285.509z"/>
		<path style="opacity:0.9;fill:#FFFFFF;" d="M99.727,285.509c21.607,30.224,133.742,63.836,194.992,51.75
			c79.438-15.675,130.179-86.295,103.777-164.496c-24.529-72.653-105.55-94.927-175.537-62.448
			C160.637,139.237,71.876,250.363,99.727,285.509z"/>
	</g>
</g>
<g id="Shadow_1_">
	<ellipse id="_x3C_Path_x3E__140_" style="fill:#F5F5F5;" cx="250" cy="416.238" rx="193.889" ry="11.323"/>
</g>
<g id="Character_1_">
	<g>
		<g>
			<polygon style="fill:#FFB573;" points="272.056,407.623 264.342,407.623 264.011,389.758 271.725,389.758 			"/>
			<polygon style="fill:#FFB573;" points="318.374,407.623 310.659,407.623 307.22,389.758 314.934,389.758 			"/>
			<path style="fill:#263238;" d="M310.133,406.73h8.667c0.315,0,0.583,0.219,0.644,0.527l1.356,6.857
				c0.141,0.711-0.435,1.384-1.163,1.372c-3.024-0.052-4.49-0.229-8.301-0.229c-2.345,0-7.182,0.244-10.42,0.244
				c-3.167,0-3.582-3.202-2.25-3.492c5.976-1.3,8.259-3.093,10.203-4.804C309.22,406.896,309.672,406.73,310.133,406.73z"/>
			<path style="fill:#263238;" d="M264.414,406.73h8.424c0.315,0,0.583,0.219,0.644,0.527l1.356,6.857
				c0.141,0.711-0.416,1.385-1.143,1.372c-3.038-0.052-7.425-0.23-11.244-0.23c-4.466,0-8.329,0.244-13.567,0.244
				c-3.167,0-3.967-3.202-2.635-3.492c6.067-1.32,10.998-1.462,16.292-4.677C263.117,406.981,263.749,406.73,264.414,406.73z"/>
			<path style="fill:#FFB573;" d="M264.186,165.511l-8.231-7.38c0,0-17.982,28.359-21.619,29.937
				c-4.949,2.147-21.607,16.493-27.078,19.816c-0.348,1.261-0.258,4.728,0.372,5.733c9.104-0.776,31.114-14.157,34.73-17.53
				C250.605,188.397,264.186,165.511,264.186,165.511z"/>
			<path style="fill:#263238;" d="M269.903,159.684c1.205,7.276-15.598,25.115-15.598,25.115l-13.456-10.944
				c0,0,5.476-9.41,12.206-16.331C259.966,150.416,268.581,151.699,269.903,159.684z"/>
			<path style="opacity:0.2;" d="M250.831,181.975l3.478,2.824c0,0,3.769-4.001,7.602-8.992c4.486-6.518,7.95-12.414,8.055-15.151
				v-0.063C268.26,159.35,258.517,169.919,250.831,181.975z"/>
			<path style="fill:#FFB573;" d="M208.41,207.306l-7.942,1.475l-0.434,8.544c0,0,4.849-1.119,9.559-4.127L208.41,207.306z"/>
			<polygon style="fill:#FFB573;" points="191.997,211.65 193.172,216.044 200.034,217.325 200.467,208.78 			"/>
			<g>
				<polygon style="opacity:0.2;" points="264.013,389.763 264.182,398.972 271.899,398.972 271.73,389.763 				"/>
				<polygon style="opacity:0.2;" points="314.937,389.763 307.219,389.763 308.996,398.972 316.714,398.972 				"/>
			</g>
			<polygon style="fill:#407BFF;" points="243.11,169.238 238.489,174.736 253.463,187.079 259.448,181.161 			"/>
			<path style="fill:#263238;" d="M258.801,153.454c0,0-9.676,23.295-2.091,66.678c12.432,0,35.212,0,41.261,0
				c0.44-6.334-2.783-37.232,4.058-67.076c0,0-7.038-1.419-13.77-1.744c-5.266-0.254-12.895-0.422-17.54,0.001
				C264.595,151.87,258.801,153.454,258.801,153.454z"/>
			<path style="opacity:0.2;" d="M292.885,160.425c-0.807,4.911,0.454,16.663,4.798,30.242c0.271-10.451,1.196-22.568,3.699-34.641
				l0.001-0.058C298.672,155.689,293.655,155.821,292.885,160.425z"/>
			<path style="fill:#FFB573;" d="M286.368,134.908c-1.245,5.644-1.966,12.638,1.89,16.404c0,0-2.408,5.725-12.895,5.725
				c-9.583,0-4.645-5.724-4.645-5.724c6.33-1.503,6.193-9.285,5.204-13.67L286.368,134.908z"/>
			<path style="opacity:0.2;" d="M275.917,137.647c0.59,2.569,0.877,6.307-0.269,9.265c0.93-0.137,1.885-0.421,2.832-0.863
				c3.589-1.674,5.402-4.306,7.319-8.212c0.161-1,0.354-1.98,0.566-2.927L275.917,137.647z"/>
			<g>
				<path style="fill:#FFB573;" d="M267.428,130.201c0.359,2.023,1.623,3.67,3.029,4.585c2.115,1.377,3.977-0.364,4.063-2.782
					c0.078-2.176-0.929-5.515-3.375-5.919C268.734,125.688,267.017,127.887,267.428,130.201z"/>
				<path style="opacity:0.2;" d="M267.428,130.201c0.359,2.023,1.623,3.67,3.029,4.585c2.115,1.377,3.977-0.364,4.063-2.782
					c0.078-2.176-0.929-5.515-3.375-5.919C268.734,125.688,267.017,127.887,267.428,130.201z"/>
			</g>
			<path style="fill:#263238;" d="M277.73,116.848l-5.079,16.701C266.009,121.619,273.472,111.482,277.73,116.848z"/>
			<path style="fill:#FFB573;" d="M291.792,130.218c-3.259,7.006-4.814,11.264-9.851,13.606c-7.576,3.524-15.052-3.026-13.93-10.814
				c1.01-7.009,6.17-17.289,14.247-17.551C290.216,115.201,295.051,123.212,291.792,130.218z"/>
			<path style="fill:#263238;" d="M287.332,136.293c-4.003,0.483-0.702-9.654,2.764-12.389c-4.65-0.628-17.137-1.669-16.54-8.451
				c0.725-8.231,10.003-5.777,9.981-3.847c1.777,1.272,15.684,0.219,14.324,10.763C304.705,122.662,300.888,134.657,287.332,136.293
				z"/>
			<path style="fill:#263238;" d="M297.861,122.633c-0.025,0-0.05-0.004-0.076-0.011c-0.139-0.042-0.218-0.189-0.177-0.328
				c1.537-5.122-0.297-6.938-2.066-7.947c-0.126-0.072-0.17-0.233-0.098-0.359c0.072-0.127,0.232-0.172,0.359-0.098
				c2.841,1.621,3.575,4.339,2.31,8.555C298.079,122.559,297.974,122.633,297.861,122.633z"/>
			<path style="fill:#263238;" d="M300.113,128.215c-0.072,0-0.144-0.03-0.196-0.088c-0.097-0.108-0.088-0.275,0.021-0.372
				c1.514-1.356,2.126-2.566,1.769-3.5c-0.377-0.986-1.887-1.623-3.846-1.623c-0.146,0-0.263-0.118-0.263-0.263
				c0-0.145,0.118-0.263,0.263-0.263c2.213,0,3.875,0.752,4.338,1.961c0.308,0.806,0.226,2.167-1.91,4.08
				C300.239,128.193,300.176,128.215,300.113,128.215z"/>
			<path style="fill:#FFB573;" d="M292.094,138.496c-1.657,1.273-3.728,1.676-5.403,1.444c-2.519-0.349-2.709-2.855-1.113-4.71
				c1.437-1.67,4.478-3.501,6.576-2.211C294.221,134.289,293.988,137.041,292.094,138.496z"/>
			<g>
				<path style="fill:#407BFF;" d="M256.709,220.132c0,0-2.476,57.678-2.214,81.203c0.273,24.47,6.856,95.853,6.856,95.853h13.068
					c0,0,2.409-69.954,3.579-93.986c1.276-26.198,5.833-83.071,5.833-83.071H256.709z"/>
				<path style="opacity:0.4;fill:#FFFFFF;" d="M256.709,220.132c0,0-2.476,57.678-2.214,81.203
					c0.273,24.47,6.856,95.853,6.856,95.853h13.068c0,0,2.409-69.954,3.579-93.986c1.276-26.198,5.833-83.071,5.833-83.071H256.709z
					"/>
			</g>
			<path style="fill:#263238;" d="M275.379,393.185c0.06,0-0.105,4.27-0.105,4.27h-15.063l-0.516-4.797L275.379,393.185z"/>
			<path style="opacity:0.2;" d="M274.382,235.398c-0.452,28.623,0.847,46.008,4.042,59.982c0.788-13.652,2.078-31.703,3.206-46.7
				L274.382,235.398z"/>
			<g>
				<path style="fill:#407BFF;" d="M271.346,220.132c0,0,7.309,58.954,11.574,81.041c4.67,24.186,22.524,96.016,22.524,96.016
					h14.129c0,0-11.148-69.876-13.564-93.823c-2.622-25.99-8.039-83.233-8.039-83.233H271.346z"/>
				<path style="opacity:0.4;fill:#FFFFFF;" d="M271.346,220.132c0,0,7.309,58.954,11.574,81.041
					c4.67,24.186,22.524,96.016,22.524,96.016h14.129c0,0-11.148-69.876-13.564-93.823c-2.622-25.99-8.039-83.233-8.039-83.233
					H271.346z"/>
			</g>
			<path style="fill:#263238;" d="M319.664,393.506c0.061,0,0.607,3.948,0.607,3.948h-15.53l-1.263-4.533L319.664,393.506z"/>
			<path style="fill:#263238;" d="M280.228,128.207c-0.23,0.584-0.723,0.943-1.101,0.802c-0.378-0.141-0.498-0.728-0.268-1.312
				c0.23-0.584,0.723-0.943,1.101-0.802C280.338,127.036,280.458,127.623,280.228,128.207z"/>
			<path style="fill:#263238;" d="M273.69,125.771c-0.23,0.584-0.723,0.943-1.101,0.802c-0.378-0.141-0.498-0.728-0.268-1.312
				c0.23-0.584,0.723-0.943,1.101-0.802C273.8,124.6,273.92,125.187,273.69,125.771z"/>
			<path style="fill:#ED893E;" d="M275.655,126.836c0,0-2.641,2.877-4.729,3.963c0.644,1.345,2.557,1.553,2.557,1.553
				L275.655,126.836z"/>
			<path style="fill:#263238;" d="M274.534,134.591c-0.094-0.035-0.14-0.14-0.102-0.235c0.037-0.094,0.144-0.143,0.237-0.108
				c2.539,0.946,4.429-0.402,4.448-0.416c0.083-0.059,0.198-0.043,0.254,0.038c0.058,0.081,0.039,0.195-0.044,0.255
				C279.244,134.186,277.255,135.605,274.534,134.591z"/>
			<path style="fill:#263238;" d="M283.036,126.813c-0.103-0.038-0.186-0.123-0.217-0.237c-0.435-1.56-1.712-1.952-1.726-1.955
				c-0.183-0.046-0.299-0.259-0.238-0.453c0.061-0.194,0.267-0.305,0.459-0.249c0.068,0.019,1.67,0.508,2.208,2.445
				c0.054,0.194-0.061,0.397-0.255,0.456C283.189,126.844,283.108,126.84,283.036,126.813z"/>
			<path style="fill:#263238;" d="M271.675,122.338c-0.048-0.022-0.093-0.054-0.129-0.099c-0.127-0.154-0.102-0.384,0.056-0.515
				c1.576-1.304,3.185-0.838,3.253-0.818c0.189,0.049,0.297,0.261,0.234,0.455c-0.063,0.193-0.268,0.302-0.459,0.246l0,0
				c-0.053-0.016-1.312-0.366-2.57,0.675C271.947,122.377,271.797,122.393,271.675,122.338z"/>
			<path style="fill:#FFB573;" d="M295.285,165.752l10.719-3.488c0,0,9.87,25.136,13.522,26.595
				c4.97,1.985,15.077,7.282,21.355,8.538c0.718,1.059,1.685,4.321,1.383,5.47c-9.002,2.34-27.329-2.594-30.938-5.831
				C303.098,189.654,295.285,165.752,295.285,165.752z"/>
			<path style="fill:#263238;" d="M302.028,153.056c7.273,1.062,15.012,26.353,15.012,26.353l-15.541,8.659
				c0,0-6.457-12.029-9.567-20.961C288.673,157.747,294.228,151.918,302.028,153.056z"/>
			<polygon style="fill:#407BFF;" points="317.015,176.658 320.937,183.51 302.028,191.523 298.68,184.329 			"/>
			<path style="fill:#407BFF;" d="M307.549,408.077c-0.587,0-1.134-0.1-1.475-0.392c-0.271-0.233-0.39-0.558-0.354-0.966
				c0.026-0.304,0.191-0.448,0.325-0.517c0.855-0.437,3.314,1.091,3.592,1.266c0.061,0.04,0.092,0.113,0.079,0.186
				c-0.014,0.071-0.069,0.13-0.141,0.147C309.035,407.93,308.262,408.077,307.549,408.077z M306.442,406.481
				c-0.096,0-0.176,0.014-0.238,0.046c-0.05,0.026-0.108,0.073-0.12,0.214c-0.026,0.291,0.05,0.508,0.231,0.664
				c0.412,0.355,1.419,0.403,2.735,0.138C308.192,407.039,307.033,406.481,306.442,406.481z"/>
			<path style="fill:#407BFF;" d="M309.531,407.805c-0.03,0-0.06-0.007-0.086-0.021c-0.788-0.434-2.29-2.124-2.105-2.985
				c0.033-0.156,0.155-0.425,0.593-0.478c0.287-0.036,0.544,0.044,0.772,0.234c0.878,0.732,1.008,2.959,1.013,3.053
				c0.004,0.067-0.03,0.131-0.087,0.167C309.601,407.795,309.566,407.805,309.531,407.805z M308.051,404.678
				c-0.027,0-0.054,0.003-0.083,0.006c-0.238,0.029-0.262,0.139-0.271,0.184c-0.109,0.508,0.843,1.786,1.621,2.388
				c-0.074-0.651-0.288-1.948-0.851-2.418C308.338,404.731,308.202,404.678,308.051,404.678z"/>
			<path style="fill:#407BFF;" d="M261.173,408.078c-0.766,0-1.471-0.118-1.863-0.474c-0.249-0.226-0.357-0.525-0.32-0.889
				c0.022-0.217,0.13-0.385,0.313-0.485c0.949-0.527,4.012,1.049,4.358,1.23c0.068,0.036,0.105,0.111,0.092,0.188
				c-0.013,0.077-0.072,0.138-0.149,0.154C262.948,407.932,262.023,408.078,261.173,408.078z M259.816,406.481
				c-0.142,0-0.259,0.021-0.343,0.067c-0.074,0.041-0.11,0.1-0.12,0.195c-0.025,0.247,0.043,0.44,0.206,0.588
				c0.464,0.421,1.732,0.492,3.442,0.21C261.947,407.033,260.546,406.481,259.816,406.481z"/>
			<path style="fill:#407BFF;" d="M263.569,407.805c-0.026,0-0.05-0.006-0.074-0.016c-0.92-0.418-2.724-2.085-2.562-2.959
				c0.038-0.204,0.19-0.46,0.693-0.509c0.367-0.046,0.712,0.067,1.006,0.313c0.962,0.806,1.118,2.883,1.125,2.972
				c0.004,0.064-0.026,0.127-0.08,0.166C263.644,407.794,263.607,407.805,263.569,407.805z M261.763,404.678
				c-0.036,0-0.073,0.003-0.11,0.006c-0.33,0.034-0.354,0.163-0.362,0.206c-0.097,0.524,1.124,1.834,2.06,2.405
				c-0.084-0.607-0.329-1.85-0.96-2.378C262.202,404.757,261.995,404.678,261.763,404.678z"/>
			<path style="fill:#FFB573;" d="M341.573,203.033l7.343,0.352l-3.902-8.003c0,0-6.435-0.095-7.486,4.851L341.573,203.033z"/>
			<polygon style="fill:#FFB573;" points="354.864,199.514 350.971,192.447 345.014,195.382 348.916,203.385 			"/>
		</g>
		<g>
			
				<rect x="343.085" y="145.668" transform="matrix(0.0623 0.9981 -0.9981 0.0623 493.6306 -191.0443)" style="fill:#407BFF;" width="10.793" height="43.004"/>
			<g>
				
					<rect x="343.953" y="159.581" transform="matrix(0.0623 0.9981 -0.9981 0.0623 508.3283 -178.8645)" style="opacity:0.5;fill:#FFFFFF;" width="10.793" height="43.004"/>
				
					<rect x="343.953" y="159.581" transform="matrix(0.0623 0.9981 -0.9981 0.0623 508.3283 -178.8645)" style="opacity:0.5;fill:#407BFF;" width="10.793" height="43.004"/>
			</g>
		</g>
	</g>
</g>
<g id="Spreadsheets">
	<g>
		<g>
			<path style="fill:#407BFF;" d="M333.778,355.555l-208.589-16.7c-5.434-0.435-9.524-5.237-9.089-10.671l9.057-113.127
				c0.435-5.434,5.237-9.524,10.671-9.089l208.589,16.7c5.434,0.435,9.524,5.237,9.089,10.671l-9.057,113.127
				C344.014,351.9,339.212,355.99,333.778,355.555z"/>
			<path style="opacity:0.4;" d="M333.778,355.555l-208.589-16.7c-5.434-0.435-9.524-5.237-9.089-10.671l9.057-113.127
				c0.435-5.434,5.237-9.524,10.671-9.089l208.589,16.7c5.434,0.435,9.524,5.237,9.089,10.671l-9.057,113.127
				C344.014,351.9,339.212,355.99,333.778,355.555z"/>
		</g>
		<path style="fill:#407BFF;" d="M330.069,355.258l-208.589-16.7c-5.434-0.435-9.524-5.237-9.089-10.671l9.057-113.127
			c0.435-5.434,5.237-9.524,10.67-9.089l208.589,16.7c5.434,0.435,9.524,5.237,9.089,10.671L340.74,346.17
			C340.305,351.603,335.503,355.693,330.069,355.258z"/>
		<path style="fill:#FFFFFF;" d="M338.254,341.451l-222.656-17.826c-0.909-0.073-1.588-0.869-1.515-1.779l7.763-96.966
			c0.073-0.909,0.869-1.588,1.778-1.515l222.656,17.826c0.909,0.073,1.587,0.869,1.515,1.778l-7.763,96.966
			C339.959,340.845,339.163,341.523,338.254,341.451z"/>
		<path style="fill:#FFFFFF;" d="M136.241,220.812c-0.155,0-0.31-0.006-0.465-0.019c-3.14-0.251-5.49-3.01-5.239-6.15
			s3.008-5.492,6.15-5.238c1.521,0.121,2.904,0.828,3.893,1.99c0.989,1.162,1.467,2.639,1.345,4.16
			c-0.122,1.521-0.829,2.904-1.99,3.893C138.893,220.336,137.596,220.812,136.241,220.812z M136.229,210.212
			c-2.52,0-4.664,1.943-4.868,4.497c-0.215,2.686,1.796,5.046,4.481,5.261c2.684,0.214,5.046-1.795,5.261-4.481
			c0.215-2.686-1.795-5.046-4.481-5.261C136.49,210.217,136.359,210.212,136.229,210.212z"/>
		<path style="fill:#FFFFFF;" d="M152.641,222.125c-0.154,0-0.31-0.006-0.465-0.019c-1.521-0.122-2.904-0.828-3.893-1.99
			c-0.99-1.162-1.467-2.639-1.346-4.16c0.251-3.14,3.01-5.491,6.15-5.239c1.521,0.122,2.904,0.829,3.893,1.99
			c0.989,1.162,1.467,2.639,1.345,4.16c-0.122,1.521-0.828,2.904-1.99,3.893C155.293,221.649,153.996,222.125,152.641,222.125z
			 M152.629,211.525c-2.52,0-4.663,1.943-4.868,4.497c-0.215,2.686,1.795,5.046,4.481,5.261c1.3,0.102,2.565-0.305,3.559-1.151
			c0.994-0.846,1.598-2.029,1.702-3.33l0,0c0.215-2.686-1.795-5.046-4.481-5.261C152.89,211.53,152.759,211.525,152.629,211.525z"/>
		<path style="fill:#FFFFFF;" d="M169.041,223.438c-0.154,0-0.31-0.006-0.465-0.019c-3.14-0.251-5.49-3.01-5.238-6.15
			c0.251-3.14,3.009-5.492,6.15-5.239c1.521,0.122,2.904,0.829,3.893,1.99c0.989,1.162,1.467,2.639,1.345,4.16
			c-0.122,1.521-0.828,2.904-1.99,3.893C171.693,222.962,170.396,223.438,169.041,223.438z M169.029,212.838
			c-2.52,0-4.663,1.943-4.868,4.497c-0.215,2.686,1.796,5.046,4.481,5.261c2.687,0.212,5.046-1.795,5.261-4.481
			c0.215-2.686-1.795-5.046-4.481-5.262C169.29,212.843,169.159,212.838,169.029,212.838z"/>
		
			<rect x="173.347" y="228.477" transform="matrix(-0.0798 0.9968 -0.9968 -0.0798 442.1904 91.7564)" style="fill:#407BFF;" width="10.793" height="43.004"/>
		
			<rect x="267.902" y="250.033" transform="matrix(-0.0798 0.9968 -0.9968 -0.0798 565.779 20.7791)" style="fill:#407BFF;" width="10.793" height="43.004"/>
		
			<rect x="218.955" y="260.1" transform="matrix(-0.0798 0.9968 -0.9968 -0.0798 522.9602 80.4399)" style="opacity:0.5;fill:#407BFF;" width="10.793" height="43.004"/>
		
			<rect x="168.896" y="284.063" transform="matrix(-0.0798 0.9968 -0.9968 -0.0798 492.7931 156.2147)" style="opacity:0.5;fill:#407BFF;" width="10.793" height="43.004"/>
		
			<rect x="314.623" y="267.759" transform="matrix(-0.0798 0.9968 -0.9968 -0.0798 633.8979 -6.6519)" style="fill:#407BFF;" width="10.793" height="43.004"/>
		
			<rect x="313.51" y="281.656" transform="matrix(-0.0798 0.9968 -0.9968 -0.0798 646.5487 9.4626)" style="opacity:0.5;fill:#407BFF;" width="10.793" height="43.004"/>
		
			<rect x="264.564" y="291.722" transform="matrix(-0.0798 0.9968 -0.9968 -0.0798 603.7311 69.1227)" style="fill:#407BFF;" width="10.793" height="43.004"/>
		<path style="fill:#E0E0E0;" d="M346.698,256.682l0.039-0.493l-47.587-3.81l1.19-14.865l-0.494-0.04l-1.19,14.865l-47.34-3.79
			l1.19-14.865l-0.494-0.04l-1.19,14.865l-47.34-3.79l1.19-14.865l-0.494-0.04l-1.19,14.865l-47.34-3.79l1.19-14.865l-0.494-0.04
			l-1.19,14.865l-34.367-2.751l-0.04,0.493l34.368,2.752l-1.073,13.403l-34.368-2.752l-0.039,0.493l34.367,2.751l-1.073,13.403
			l-34.368-2.751l-0.039,0.493l34.368,2.752l-1.073,13.403l-34.367-2.752l-0.039,0.493l34.367,2.752l-1.073,13.403l-34.368-2.752
			l-0.039,0.493l34.367,2.751l-1.073,13.403l-34.367-2.751l-0.039,0.493l34.367,2.752l-1.234,15.418l0.494,0.039l1.234-15.418
			l47.34,3.79l-1.234,15.418l0.494,0.04l1.234-15.418l47.34,3.79l-1.234,15.418l0.494,0.04l1.234-15.418l47.34,3.79l-1.234,15.418
			l0.494,0.039l1.234-15.418l47.587,3.81l0.039-0.493l-47.587-3.81l1.073-13.403l47.587,3.81l0.039-0.493l-47.587-3.81l1.073-13.403
			l47.587,3.81l0.04-0.493l-47.587-3.81l1.073-13.403l47.587,3.81l0.039-0.493l-47.587-3.81l1.073-13.403l47.587,3.81l0.039-0.493
			l-47.587-3.81l1.073-13.403L346.698,256.682z M250.784,249.003l-1.073,13.403l-47.34-3.79l1.073-13.403L250.784,249.003z
			 M200.145,286.409l1.073-13.403l47.34,3.79l-1.073,13.403L200.145,286.409z M247.446,290.692l-1.073,13.403l-47.34-3.79
			l1.073-13.403L247.446,290.692z M201.258,272.512l1.073-13.403l47.34,3.79l-1.073,13.403L201.258,272.512z M155.609,241.383
			l47.34,3.79l-1.073,13.403l-47.34-3.79L155.609,241.383z M154.497,255.279l47.34,3.79l-1.073,13.403l-47.34-3.79L154.497,255.279z
			 M153.384,269.176l47.34,3.79l-1.073,13.403l-47.34-3.79L153.384,269.176z M152.272,283.072l47.34,3.79l-1.073,13.403l-47.34-3.79
			L152.272,283.072z M150.086,310.372l1.073-13.403l47.34,3.79l-1.073,13.403L150.086,310.372z M197.92,314.201l1.073-13.403
			l47.34,3.79l-1.073,13.403L197.92,314.201z M293.094,321.821l-47.34-3.79l1.073-13.403l47.34,3.79L293.094,321.821z
			 M294.206,307.925l-47.34-3.79l1.073-13.403l47.34,3.79L294.206,307.925z M295.319,294.028l-47.34-3.79l1.073-13.403l47.34,3.79
			L295.319,294.028z M296.432,280.132l-47.34-3.79l1.073-13.403l47.34,3.79L296.432,280.132z M297.544,266.235l-47.34-3.79
			l1.073-13.403l47.34,3.79L297.544,266.235z"/>
	</g>
</g>
</svg>
