<svg width="22" height="22" viewBox="0 0 22 22" fill="none" xmlns="http://www.w3.org/2000/svg">
<path d="M17 8.357V9.5M17 8.357C16.5224 8.35883 16.0516 8.24389 15.6286 8.02219C15.2056 7.8005 14.8432 7.47876 14.573 7.085M17 8.357C17.4776 8.35883 17.9484 8.24389 18.3714 8.02219C18.7944 7.8005 19.1568 7.47876 19.427 7.085M14.573 7.085L13.5 7.785M14.573 7.085C14.2527 6.6185 14.0812 6.06589 14.0812 5.5C14.0812 4.93411 14.2527 4.3815 14.573 3.915M19.427 7.085L20.5 7.785M19.427 7.085C19.7473 6.6185 19.9188 6.06589 19.9188 5.5C19.9188 4.93411 19.7473 4.3815 19.427 3.915M17 2.643C17.4776 2.64117 17.9484 2.75611 18.3714 2.97781C18.7944 3.1995 19.1568 3.52124 19.427 3.915M17 2.643C16.5224 2.64117 16.0516 2.75611 15.6286 2.97781C15.2056 3.1995 14.8432 3.52124 14.573 3.915M17 2.643V1.5M19.427 3.915L20.5 3.214M14.573 3.915L13.5 3.215M1 5C1 3.6 1 2.9 1.272 2.365C1.51173 1.89435 1.89435 1.51173 2.365 1.272C2.9 1 3.6 1 5 1C6.4 1 7.1 1 7.635 1.272C8.10565 1.51173 8.48827 1.89435 8.728 2.365C9 2.9 9 3.6 9 5C9 6.4 9 7.1 8.728 7.635C8.48827 8.10565 8.10565 8.48827 7.635 8.728C7.1 9 6.4 9 5 9C3.6 9 2.9 9 2.365 8.728C1.89435 8.48827 1.51173 8.10565 1.272 7.635C1 7.1 1 6.4 1 5ZM1 17C1 15.6 1 14.9 1.272 14.365C1.5119 13.8947 1.89451 13.5125 2.365 13.273C2.9 13 3.6 13 5 13C6.4 13 7.1 13 7.635 13.273C8.10549 13.5125 8.4881 13.8947 8.728 14.365C9 14.9 9 15.6 9 17C9 18.4 9 19.1 8.728 19.635C8.4881 20.1053 8.10549 20.4875 7.635 20.727C7.1 21 6.4 21 5 21C3.6 21 2.9 21 2.365 20.727C1.89451 20.4875 1.5119 20.1053 1.272 19.635C1 19.1 1 18.4 1 17ZM13 17C13 15.6 13 14.9 13.273 14.365C13.5126 13.8949 13.8949 13.5126 14.365 13.273C14.9 13 15.6 13 17 13C18.4 13 19.1 13 19.635 13.273C20.1051 13.5126 20.4874 13.8949 20.727 14.365C21 14.9 21 15.6 21 17C21 18.4 21 19.1 20.727 19.635C20.4874 20.1051 20.1051 20.4874 19.635 20.727C19.1 21 18.4 21 17 21C15.6 21 14.9 21 14.365 20.727C13.8949 20.4874 13.5126 20.1051 13.273 19.635C13 19.1 13 18.4 13 17Z" stroke="black" stroke-width="1.5" stroke-linecap="round" stroke-linejoin="round"/>
</svg>
