<svg width="22" height="22" viewBox="0 0 22 22" fill="none" xmlns="http://www.w3.org/2000/svg">
<path d="M9.00005 17H13.0001M1.35105 12.214C0.998052 9.916 0.821052 8.768 1.25605 7.749C1.69005 6.731 2.65405 6.034 4.58105 4.641L6.02105 3.6C8.41805 1.867 9.61705 1 11.0001 1C12.3831 1 13.5821 1.867 15.9791 3.6L17.4191 4.641C19.3461 6.034 20.3091 6.731 20.7441 7.749C21.1781 8.768 21.0021 9.916 20.6491 12.213L20.3481 14.173C19.8481 17.429 19.5971 19.057 18.4291 20.029C17.2611 21.001 15.5541 21 12.1391 21H9.86005C6.44505 21 4.73805 21 3.57005 20.029C2.40205 19.057 2.15205 17.429 1.65105 14.172L1.35105 12.214Z" stroke="black" stroke-width="1.5" stroke-linecap="round" stroke-linejoin="round"/>
</svg>
